<?xml version="1.0" encoding="UTF-8"?>
<svg width="365px" height="410px" viewBox="0 0 365 410" version="1.1" xmlns="http://www.w3.org/2000/svg" xmlns:xlink="http://www.w3.org/1999/xlink">
    <!-- Generator: Sketch 63.1 (92452) - https://sketch.com -->
    <title>logo</title>
    <desc>Created with Sketch.</desc>
    <g id="Page-1" stroke="none" stroke-width="1" fill="none" fill-rule="evenodd">
        <g id="logo" fill="#F7931A" fill-rule="nonzero">
            <path d="M199.8,310.34 L199.8,278.68 C231.89,276.84 254.36,268.75 257.15,238.61 C259.4,214.34 247.98,203.51 229.76,199.14 C240.83,193.5 247.76,183.57 246.13,167.03 C243.96,144.41 224.44,136.83 199.8,134.68 L199.8,103.31 L180.72,103.31 L180.72,133.85 C175.72,133.85 170.57,133.95 165.47,134.05 L165.47,103.31 L146.39,103.31 L146.39,134.67 C142.25,134.75 138.19,134.83 134.24,134.83 L134.24,134.73 L107.9,134.73 L107.9,155.11 C107.9,155.11 122,154.85 121.76,155.11 C129.49,155.11 132.01,159.6 132.76,163.47 L132.76,199.2 C133.428713,199.201962 134.09666,199.245379 134.76,199.33 L132.76,199.33 L132.76,249.38 C132.42,251.81 130.99,255.69 125.59,255.7 C125.83,255.92 111.71,255.7 111.71,255.7 L107.92,278.5 L132.76,278.5 C137.38,278.5 141.93,278.58 146.4,278.61 L146.4,310.33 L165.47,310.33 L165.47,278.98 C170.7,279.09 175.77,279.13 180.72,279.12 L180.72,310.36 L199.8,310.34 Z M165.92,156.49 C176.7,156.49 210.55,153.06 210.55,175.56 C210.55,197.12 176.7,194.56 165.92,194.56 L165.92,156.49 Z M165.92,255.87 L165.92,213.87 C178.86,213.87 219.430002,210.15 219.430002,234.87 C219.44,258.56 178.85,255.86 165.92,255.87 L165.92,255.87 Z" id="Shape"></path>
            <polygon id="Path" points="182.66 31.95 182.66 0 210.34 15.98 238.01 31.95 210.34 47.93 182.66 63.9"></polygon>
            <polygon id="Path" points="182.79 377.18 182.79 409.13 155.12 393.15 127.44 377.18 155.12 361.2 182.79 345.23"></polygon>
            <path d="M364.12,196.27 C364.12,195.57 364.06,194.86 364.02,194.16 C363.87,191.53 363.68,188.9 363.42,186.3 L363.42,185.96 C363.14,183.28 362.79,180.63 362.42,177.96 C362.31,177.23 362.2,176.5 362.08,175.77 C361.7,173.39 361.29,171.03 360.81,168.68 C360.81,168.39 360.71,168.09 360.65,167.8 C360.13,165.28 359.54,162.8 358.92,160.31 L358.3,157.92 C357.75,155.86 357.16,153.81 356.55,151.78 C356.38,151.23 356.23,150.68 356.06,150.14 C355.34,147.86 354.56,145.61 353.76,143.37 C353.44,142.47 353.1,141.57 352.76,140.68 C352.12,138.98 351.45,137.31 350.76,135.68 C350.35,134.68 349.95,133.68 349.53,132.74 C348.73,130.89 347.9,129.07 347.05,127.26 C346.56,126.26 346.05,125.26 345.55,124.18 C344.91,122.89 344.24,121.6 343.55,120.32 C342.75,118.8 341.93,117.293333 341.09,115.8 C340.36,114.51 339.63,113.23 338.88,111.96 C338.13,110.69 337.47,109.64 336.76,108.5 C336.19,107.59 335.6,106.69 335.02,105.79 C333.64,103.67 332.213333,101.576667 330.74,99.51 C330.28,98.86 329.83,98.21 329.36,97.57 C328.42,96.29 327.466667,95.0266667 326.5,93.78 C326.07,93.22 325.63,92.66 325.18,92.11 C321.92,87.99 318.49,84 314.89,80.18 L314.08,79.33 C310.253333,75.33 306.253333,71.4933333 302.08,67.82 L301.75,67.53 C297.396667,63.75 292.873333,60.1766667 288.18,56.81 L288.18,56.81 C283.42,53.3966667 278.493333,50.2166667 273.4,47.27 L254.93,57.88 C257.93,59.37 260.88,60.96 263.78,62.62 L265.37,63.54 C266.68,64.31 267.98,65.09 269.26,65.9 C269.76,66.21 270.26,66.54 270.75,66.9 C273.23,68.4933333 275.666667,70.16 278.06,71.9 L279.06,72.63 C280.25,73.5 281.41,74.39 282.58,75.29 L284.32,76.66 C285.46,77.57 286.59,78.47 287.7,79.41 L288.36,79.98 C290.573333,81.86 292.73,83.7966667 294.83,85.79 C295.45,86.37 296.08,86.96 296.69,87.55 C297.64,88.49 298.59,89.43 299.53,90.38 C300.18,91.05 300.82,91.73 301.46,92.38 C302.91,93.91 304.32,95.47 305.71,97.05 C306.43,97.87 307.15,98.7 307.86,99.53 C308.57,100.36 309.39,101.4 310.15,102.34 C310.91,103.28 311.53,104.07 312.21,104.95 C312.89,105.83 313.61,106.76 314.29,107.69 C315.483333,109.29 316.643333,110.916667 317.77,112.57 C318.34,113.41 318.89,114.26 319.44,115.11 C320.16,116.21 320.87,117.31 321.56,118.42 C322.11,119.3 322.66,120.18 323.19,121.07 C323.976667,122.403333 324.75,123.736667 325.51,125.07 C326.01,125.97 326.51,126.88 327.01,127.79 C327.883333,129.423333 328.726667,131.066667 329.54,132.72 C329.94,133.54 330.32,134.36 330.71,135.18 C331.37,136.58 332.01,138 332.63,139.42 C332.95,140.16 333.28,140.9 333.63,141.64 C334.49,143.69 335.32,145.77 336.09,147.86 C336.33,148.5 336.55,149.16 336.78,149.8 C337.36,151.433333 337.916667,153.073333 338.45,154.72 C338.69,155.48 338.93,156.23 339.16,156.98 C339.78,158.98 340.37,161.06 340.91,163.13 L341.12,163.9 C341.7,166.16 342.22,168.45 342.71,170.76 L343.13,172.88 C343.496667,174.72 343.83,176.573333 344.13,178.44 C344.22,179.03 344.33,179.62 344.42,180.21 C344.78,182.59 345.083333,184.986667 345.33,187.4 C345.39,187.95 345.43,188.5 345.48,189.05 C345.666667,191.05 345.82,193.023333 345.94,194.97 C345.94,195.67 346.02,196.36 346.05,197.06 C346.16,199.55 346.24,202.06 346.24,204.56 L346.24,204.56 C346.24,289.11 281.75,358.88 199.38,367.27 C193.8713,367.8329 188.337384,368.113268 182.8,368.11 L182.8,386.22 C188.955189,386.215125 195.106256,385.901397 201.23,385.28 C292.72,375.96 364.34,298.47 364.34,204.56 L364.34,204.56 C364.33,201.78 364.25,198.98 364.12,196.27 Z" id="Path"></path>
            <path d="M19.11,204.56 C19.11,120.01 83.6,50.24 165.97,41.85 C171.518658,41.283755 177.092524,41.0000553 182.67,41 L182.67,22.9 C176.47476,22.9 170.283492,23.2136101 164.12,23.84 C72.63,33.16 0.99,110.66 0.99,204.57 L0.99,204.57 C0.99,207.35 1.08,210.11 1.21,212.86 C1.21,213.57 1.27,214.27 1.31,214.97 C1.46,217.6 1.65,220.23 1.91,222.83 L1.91,223.17 C2.19,225.85 2.54,228.5 2.91,231.17 C3.02,231.9 3.13,232.63 3.25,233.36 C3.63,235.74 4.04,238.11 4.52,240.45 C4.52,240.74 4.62,241.04 4.68,241.33 C5.2,243.85 5.79,246.33 6.41,248.82 C6.62,249.62 6.82,250.42 7.03,251.21 C7.58,253.27 8.17,255.32 8.78,257.36 C8.95,257.9 9.1,258.45 9.27,258.99 C9.99,261.27 10.77,263.52 11.57,265.76 C11.89,266.66 12.23,267.56 12.57,268.45 C13.21,270.15 13.88,271.82 14.57,273.45 C14.98,274.45 15.38,275.45 15.8,276.45 C16.6,278.29 17.4266667,280.113333 18.28,281.92 C18.77,282.92 19.28,283.98 19.78,285 C20.42,286.29 21.09,287.58 21.78,288.86 C22.58,290.38 23.4,291.886667 24.24,293.38 C24.97,294.67 25.7,295.95 26.45,297.22 C27.2,298.49 27.86,299.54 28.57,300.69 C29.14,301.59 29.73,302.49 30.31,303.39 C31.69,305.51 33.12,307.61 34.59,309.67 C35.05,310.32 35.5,310.97 35.97,311.62 C36.91,312.886667 37.8633333,314.146667 38.83,315.4 C39.2566667,315.96 39.6966667,316.52 40.15,317.08 C43.41,321.2 46.84,325.173333 50.44,329 L51.25,329.86 C55.0833333,333.86 59.0833333,337.693333 63.25,341.36 L63.58,341.65 C67.9266667,345.43 72.45,349.003333 77.15,352.37 L77.15,352.37 C81.9233333,355.783333 86.8533333,358.963333 91.94,361.91 L110.36,351.28 C107.36,349.79 104.41,348.2 101.51,346.54 L99.92,345.62 C98.61,344.85 97.31,344.07 96.03,343.26 C95.53,342.95 95.03,342.62 94.54,342.26 C92.06,340.673333 89.6233333,339.006667 87.23,337.26 L86.23,336.53 C85.04,335.66 83.88,334.77 82.71,333.87 L80.97,332.5 C79.83,331.59 78.7,330.69 77.59,329.75 C77.37,329.57 77.15,329.37 76.93,329.18 C74.7166667,327.306667 72.56,325.373333 70.46,323.38 L68.6,321.61 C67.65,320.67 66.7,319.73 65.76,318.78 C65.11,318.11 64.47,317.43 63.83,316.78 C62.38,315.25 60.97,313.7 59.58,312.11 C58.86,311.29 58.14,310.47 57.43,309.63 C56.72,308.79 55.9,307.77 55.14,306.83 C54.38,305.89 53.76,305.09 53.08,304.21 C52.4,303.33 51.68,302.4 51,301.48 C49.8133333,299.873333 48.6533333,298.243333 47.52,296.59 C46.95,295.75 46.4,294.9 45.85,294.05 C45.13,292.95 44.42,291.85 43.73,290.74 C43.18,289.86 42.63,288.98 42.1,288.09 C41.3066667,286.756667 40.5333333,285.423333 39.78,284.09 C39.27,283.19 38.78,282.29 38.28,281.37 C37.4066667,279.743333 36.5633333,278.1 35.75,276.44 C35.35,275.63 34.97,274.8 34.58,273.98 C33.92,272.58 33.28,271.16 32.66,269.74 C32.34,269 32.01,268.27 31.66,267.52 C30.8,265.52 29.97,263.39 29.2,261.3 C28.96,260.66 28.74,260 28.51,259.36 C27.93,257.733333 27.3733333,256.093333 26.84,254.44 C26.6,253.69 26.36,252.93 26.13,252.18 C25.51,250.18 24.92,248.1 24.38,246.03 L24.17,245.27 C23.59,243 23.07,240.71 22.58,238.41 L22.16,236.29 C21.79,234.44 21.46,232.59 21.16,230.72 C21.07,230.13 20.96,229.55 20.87,228.95 C20.51,226.57 20.21,224.18 19.96,221.76 C19.9,221.21 19.86,220.66 19.81,220.11 C19.6233333,218.11 19.47,216.136667 19.35,214.19 C19.35,213.49 19.27,212.8 19.24,212.1 C19.13,209.61 19.05,207.1 19.05,204.6 L19.05,204.6 L19.11,204.56 Z" id="Path"></path>
        </g>
    </g>
</svg>