<?xml version="1.0" encoding="UTF-8"?>
<svg width="64" height="64" viewBox="0 0 64 64" version="1.1" xmlns="http://www.w3.org/2000/svg" xmlns:xlink="http://www.w3.org/1999/xlink">
    <title>bitcoin</title>
    <g id="Page-1" stroke="none" stroke-width="1" fill="none" fill-rule="evenodd">
        <g id="bitcoin" fill-rule="nonzero">
            <path d="M63.0393088,39.7409802 C58.7653088,56.8839802 41.4023088,67.3169802 24.2573088,63.0419802 C7.11930876,58.7679802 -3.31369124,41.4039802 0.96230876,24.2619802 C5.23430876,7.11698016 22.5973088,-3.31701984 39.7373088,0.95698016 C56.8813088,5.23098016 67.3133088,22.5969802 63.0393088,39.7409802 Z" id="Path" fill="#F7931A"></path>
            <path d="M46.1093088,27.4409802 C46.7463088,23.1829802 43.5043088,20.8939802 39.0713088,19.3669802 L40.5093088,13.5989802 L36.9983088,12.7239802 L35.5983088,18.3399802 C34.6753088,18.1099802 33.7273088,17.8929802 32.7853088,17.6779802 L34.1953088,12.0249802 L30.6863088,11.1499802 L29.2473088,16.9159802 C28.4833088,16.7419802 27.7333088,16.5699802 27.0053088,16.3889802 L27.0093088,16.3709802 L22.1673088,15.1619802 L21.2333088,18.9119802 C21.2333088,18.9119802 23.8383088,19.5089802 23.7833088,19.5459802 C25.2053088,19.9009802 25.4623088,20.8419802 25.4193088,21.5879802 L23.7813088,28.1589802 C23.8793088,28.1839802 24.0063088,28.2199802 24.1463088,28.2759802 C24.0293088,28.2469802 23.9043088,28.2149802 23.7753088,28.1839802 L21.4793088,37.3889802 C21.3053088,37.8209802 20.8643088,38.4689802 19.8703088,38.2229802 C19.9053088,38.2739802 17.3183088,37.5859802 17.3183088,37.5859802 L15.5753088,41.6049802 L20.1443088,42.7439802 C20.9943088,42.9569802 21.8273088,43.1799802 22.6473088,43.3899802 L21.1943088,49.2239802 L24.7013088,50.0989802 L26.1403088,44.3269802 C27.0983088,44.5869802 28.0283088,44.8269802 28.9383088,45.0529802 L27.5043088,50.7979802 L31.0153088,51.6729802 L32.4683088,45.8499802 C38.4553088,46.9829802 42.9573088,46.5259802 44.8523088,41.1109802 C46.3793088,36.7509802 44.7763088,34.2359802 41.6263088,32.5959802 C43.9203088,32.0669802 45.6483088,30.5579802 46.1093088,27.4409802 L46.1093088,27.4409802 Z M38.0873088,38.6899802 C37.0023088,43.0499802 29.6613088,40.6929802 27.2813088,40.1019802 L29.2093088,32.3729802 C31.5893088,32.9669802 39.2213088,34.1429802 38.0873088,38.6899802 Z M39.1733088,27.3779802 C38.1833088,31.3439802 32.0733088,29.3289802 30.0913088,28.8349802 L31.8393088,21.8249802 C33.8213088,22.3189802 40.2043088,23.2409802 39.1733088,27.3779802 L39.1733088,27.3779802 Z" id="Shape" fill="#FFFFFF"></path>
        </g>
    </g>
</svg>