<?xml version="1.0" encoding="UTF-8"?>
<svg width="15px" height="14px" viewBox="0 0 15 14" version="1.1" xmlns="http://www.w3.org/2000/svg" xmlns:xlink="http://www.w3.org/1999/xlink">
    <title>Path</title>
    <g id="Page-1" stroke="none" stroke-width="1" fill="none" fill-rule="evenodd">
        <g id="Desktop" transform="translate(-1150.000000, -1003.000000)" fill="#A7A7A7">
            <g id="footer" transform="translate(250.000000, 1001.000000)">
                <g id="github" transform="translate(900.000000, 2.000000)">
                    <path d="M7.5,0 C3.35625,0 0,3.21173769 0,7.17706747 C0,10.352872 2.14687,13.0353727 5.12812,13.9862863 C5.50312,14.0491574 5.64375,13.8338454 5.64375,13.6454234 C5.64375,13.474992 5.63438,12.9097262 5.63438,12.3086707 C3.75,12.640634 3.2625,11.8690514 3.1125,11.4653174 C3.02812,11.2590007 2.6625,10.6220599 2.34375,10.4516284 C2.08125,10.3169866 1.70625,9.98511904 2.33438,9.97612378 C2.925,9.96712852 3.34688,10.4964133 3.4875,10.7117253 C4.1625,11.7972807 5.24063,11.4923032 5.67188,11.3038813 C5.7375,10.8373719 5.93437,10.5233991 6.15,10.3439724 C4.48125,10.1645457 2.7375,9.54549973 2.7375,6.80027143 C2.7375,6.01976055 3.02813,5.37382448 3.50625,4.87142976 C3.43125,4.69200307 3.16875,3.95635366 3.58125,2.96950688 C3.58125,2.96950688 4.20938,2.78111364 5.64375,3.70516587 C6.24375,3.54368185 6.88125,3.46293505 7.51875,3.46293505 C8.15625,3.46293505 8.79375,3.54368185 9.39375,3.70516587 C10.8281,2.77214709 11.4563,2.96950688 11.4563,2.96950688 C11.8688,3.95635366 11.6063,4.69200307 11.5313,4.87142976 C12.0094,5.37382448 12.3,6.010794 12.3,6.80027143 C12.3,9.55446628 10.5469,10.1645457 8.87813,10.3439724 C9.15,10.568184 9.38438,10.9989037 9.38438,11.6717299 C9.38438,12.6316387 9.375,13.4032213 9.375,13.6454234 C9.375,13.8338454 9.51563,14.058057 9.89063,13.9862863 C12.8531,13.0353727 15,10.3439724 15,7.17706747 C15,3.21173769 11.6438,0 7.5,0 Z" id="Path"></path>
                </g>
            </g>
        </g>
    </g>
</svg>