<svg id="Layer_1" data-name="Layer 1" xmlns="http://www.w3.org/2000/svg" xmlns:xlink="http://www.w3.org/1999/xlink" viewBox="0 0 2000 2000"><defs><style>.cls-1{fill:url(#linear-gradient);}.cls-2{fill:#fff;}</style><linearGradient id="linear-gradient" x1="-327.07" y1="1766.18" x2="1973.55" y2="437.92" gradientUnits="userSpaceOnUse"><stop offset="0" stop-color="#9440fa"/><stop offset="0.25" stop-color="#ff1be8"/><stop offset="0.5" stop-color="#ff2d64"/><stop offset="0.75" stop-color="#ff8344"/><stop offset="1" stop-color="#fec813"/></linearGradient></defs><title>multibtc</title><circle class="cls-1" cx="1000" cy="1000" r="1000"/><path class="cls-2" d="M1098.68,1592.75l0-182.41c184.89-10.61,314.3-57.19,330.37-230.81,13-139.81-52.79-202.2-157.75-227.4,63.76-32.47,103.63-89.67,94.3-185-12.52-130.25-125-173.92-266.92-186.36V400.1l-110,0V576c-28.92,0-58.47.58-87.83,1.16l0-177.08H791l0,180.62c-23.81.49-47.2.93-70,.95v-.56l-151.69,0,0,117.45s81.22-1.54,79.87,0c44.54,0,59,25.88,63.26,48.19V952.49a89.39,89.39,0,0,1,11.62.77c-3.66,0-7.58,0-11.61,0l0,288.35c-2,14-10.2,36.37-41.32,36.43,1.41,1.24-80,0-80,0l-21.85,131.34H712.43c26.64,0,52.84.48,78.57.65l0,182.73,109.85,0V1412c30.16.62,59.36.86,87.85.83l0,180ZM903.51,706.45c62.09,0,257.11-19.75,257.12,109.83,0,124.25-195,109.75-257.12,109.75Zm0,572.52,0-242.11c74.56,0,308.28-21.42,308.27,121C1211.84,1294.43,978,1278.9,903.48,1279Z" transform="translate(0 3.57)"/></svg>