<?xml version="1.0" encoding="UTF-8"?>
<svg width="142px" height="141px" viewBox="0 0 142 141" version="1.1" xmlns="http://www.w3.org/2000/svg" xmlns:xlink="http://www.w3.org/1999/xlink">
    <title>wbtc</title>
    <g id="Page-1" stroke="none" stroke-width="1" fill="none" fill-rule="evenodd">
        <g id="wbtc" transform="translate(1.000000, 0.000000)">
            <path d="M70,140.604 C108.660192,140.604 140,109.264192 140,70.604 C140,31.9440769 108.660192,0.604 70,0.604 C31.3400769,0.604 0,31.9440769 0,70.604 C0,109.264192 31.3400769,140.604 70,140.604 Z" id="Path" fill="#FFFFFF" fill-rule="nonzero"></path>
            <path d="M82.629,68.446 C85.596,66.863 87.453,64.074 87.019,59.428 C86.435,53.079 81.202,50.95 74.596,50.343 L74.595,41.5364 L69.476,41.5364 L69.475,50.112 C68.128,50.112 66.755,50.139 65.388,50.168 L65.387,41.5375 L60.273,41.537 L60.272,50.342 C59.164,50.365 58.076,50.388 57.013,50.388 L57.013,50.362 L49.953,50.359 L49.954,56.083 C49.954,56.083 53.734,56.009 53.671,56.081 C55.744,56.083 56.42,57.344 56.615,58.432 L56.617,68.465 L56.617,82.558 C56.525,83.24 56.141,84.332 54.692,84.334 C54.758,84.394 50.969,84.333 50.969,84.333 L49.954,90.734 L56.614,90.734 C57.854,90.736 59.074,90.756 60.27,90.766 L60.274,99.673 L65.387,99.674 L65.386,90.861 C66.792,90.891 68.15,90.904 69.476,90.902 L69.475,99.674 L74.593,99.674 L74.596,90.782 C83.2,90.265 89.223,87.994 89.972,79.53 C90.576,72.716 87.514,69.674 82.629,68.446 Z M65.511,56.47 C68.397,56.47 77.476,55.507 77.478,61.824 C77.476,67.88 68.4,67.173 65.511,67.173 L65.511,56.47 Z M65.508,84.377 L65.511,72.576 C68.979,72.575 79.858,71.531 79.859,78.474 C79.861,85.133 68.979,84.374 65.508,84.377 Z" id="Shape" fill="#F7931A" fill-rule="nonzero"></path>
            <circle id="Oval" stroke="#657786" stroke-width="8.019" cx="70" cy="70.604" r="50.1188"></circle>
            <circle id="Oval" stroke="#283947" stroke-width="8.019" cx="70" cy="70.604" r="66.1568"></circle>
            <path d="M107.328,111.701 L90.133,94.758 M43.644,48.949 L28.9028,34.5184 M32.8181,111.701 L50.013,94.758 M96.502,48.949 L111.098,34.5184" id="Shape" stroke="#FFFFFF" stroke-width="6.01425"></path>
        </g>
    </g>
</svg>